<svg fill="#000000" height="24" width="24" version="1.1" id="Layer_1"
                xmlns="http://www.w3.org/2000/svg" xmlns:xlink="http://www.w3.org/1999/xlink"
                viewBox="0 0 368 368" xml:space="preserve">
                <g>
                    <g>
                        <g>
                            <path
                                d="M328,24H40C18,24,0,42,0,64v240c0,22,18,40,40,40h288c22,0,40-18,40-40V64C368,42,350,24,328,24z M352,304
                   c0,13.2-10.8,24-24,24H40c-13.2,0-24-10.8-24-24V64c0-13.2,10.8-24,24-24h288c13.2,0,24,10.8,24,24V304z" />
                            <path d="M288,88H144V72c0-4.4-3.6-8-8-8c-4.4,0-8,3.6-8,8v16H84c-4.4,0-8,3.6-8,8c0,4.4,3.6,8,8,8h44v16c0,4.4,3.6,8,8,8
                   c4.4,0,8-3.6,8-8v-16h144c4.4,0,8-3.6,8-8C296,91.6,292.4,88,288,88z" />
                            <path d="M288,248h-96v-16c0-4.4-3.6-8-8-8c-4.4,0-8,3.6-8,8v16H84c-4.4,0-8,3.6-8,8c0,4.4,3.6,8,8,8h92v16c0,4.4,3.6,8,8,8
                   c4.4,0,8-3.6,8-8v-16h96c4.4,0,8-3.6,8-8C296,251.6,292.4,248,288,248z" />
                            <path d="M288,168h-32v-16c0-4.4-3.6-8-8-8c-4.4,0-8,3.6-8,8v16H84c-4.4,0-8,3.6-8,8c0,4.4,3.6,8,8,8h156v16c0,4.4,3.6,8,8,8
                   c4.4,0,8-3.6,8-8v-16h32c4.4,0,8-3.6,8-8C296,171.6,292.4,168,288,168z" />
                        </g>
                    </g>
                </g>
            </svg>